<svg width="474.919970703125px" height="122.021240234375px" xmlns="http://www.w3.org/2000/svg" viewBox="12.540014648437506 13.9893798828125 474.919970703125 122.021240234375" style="background:#051103" preserveAspectRatio="xMidYMid"><defs><linearGradient id="editing-glowing-gradient" x1="0.8146601955249185" x2="0.18533980447508147" y1="0.8885729807284856" y2="0.11142701927151444"><stop offset="0" stop-color="#67ff43"></stop><stop offset="1" stop-color="#90ffff"></stop></linearGradient><filter id="editing-glowing" x="-100%" y="-100%" width="300%" height="300%"><feGaussianBlur in="SourceGraphic" result="blur" stdDeviation="10"></feGaussianBlur><feMerge><feMergeNode in="blur"></feMergeNode><feMergeNode in="SourceGraphic"></feMergeNode></feMerge></filter></defs><g filter="url(#editing-glowing)"><g transform="translate(81.5656304359436, 97.45718765258789)"><path d="M2.69-39.68L2.69-39.68L2.69-39.68Q4.54-43.52 9.70-43.52L9.70-43.52L9.70-43.52Q14.85-43.52 17.25-40.54L17.25-40.54L17.25-40.54Q19.65-37.57 19.65-30.72L19.65-30.72L19.65-7.87L35.20-42.18L42.82-42.18L22.91 0L7.94 0L6.02-30.72L6.02-30.72Q5.82-34.11 4.90-36.42L4.90-36.42L4.90-36.42Q3.97-38.72 2.69-39.68ZM53.50 0L39.55 0L47.68-42.24L61.76-42.24L53.50 0ZM88.19-42.69L88.19-42.69L88.19-42.69Q103.87-42.69 103.87-31.62L103.87-31.62L103.87-31.62Q103.87-25.54 99.97-21.89L99.97-21.89L99.97-21.89Q96.13-18.24 89.41-18.24L89.41-18.24L89.41-18.24Q86.27-18.24 83.84-20.03L83.84-20.03L83.84-20.03Q82.69-20.80 81.92-21.82L81.92-21.82L81.92-21.82Q86.59-21.82 89.06-24.67L89.06-24.67L89.06-24.67Q91.52-27.52 91.52-33.09L91.52-33.09L91.52-33.09Q91.52-38.66 86.02-38.66L86.02-38.66L84.48-38.66L84.48-38.66Q84.10-38.66 83.78-38.59L83.78-38.59L76.42 0L62.53 0L70.40-41.92L70.40-41.92Q77.25-42.56 81.22-42.62L81.22-42.62L81.22-42.62Q85.18-42.69 88.19-42.69ZM109.31-31.17L109.31-31.17L109.31-31.17Q107.14-32.83 107.14-36.38L107.14-36.38L107.14-36.38Q107.14-39.94 109.47-41.79L109.47-41.79L109.47-41.79Q111.81-43.65 115.84-43.65L115.84-43.65L115.84-43.65Q118.40-43.65 124.48-42.75L124.48-42.75L128.83-42.11L128.83-42.11Q131.01-41.86 133.28-41.86L133.28-41.86L133.28-41.86Q135.55-41.86 137.09-42.82L137.09-42.82L137.09-42.82Q139.39-40.77 139.39-37.82L139.39-37.82L139.39-37.82Q139.39-34.88 136.77-32.77L136.77-32.77L136.77-32.77Q134.08-30.53 130.62-30.53L130.62-30.53L130.62-30.53Q128.96-30.53 126.27-30.98L126.27-30.98L126.27-30.98Q123.14-21.12 123.14-14.27L123.14-14.27L123.14-14.27Q123.14-7.42 126.59-3.84L126.59-3.84L126.59-3.84Q124.99-0.96 122.62 0.16L122.62 0.16L122.62 0.16Q120.26 1.28 116.70 1.28L116.70 1.28L116.70 1.28Q113.15 1.28 110.94-0.67L110.94-0.67L110.94-0.67Q108.74-2.62 108.74-6.66L108.74-6.66L108.74-6.66Q108.74-11.33 111.30-19.01L111.30-19.01L111.30-19.01Q113.86-26.62 117.70-32.45L117.70-32.45L117.70-32.45Q115.84-32.64 113.92-32.64L113.92-32.64L113.92-32.64Q109.95-32.64 109.31-31.17ZM164.67-9.86L164.67-9.86L164.67-9.86Q165.89-8.32 165.89-5.82L165.89-5.82L165.89-5.82Q165.89-2.37 163.33-0.54L163.33-0.54L163.33-0.54Q160.77 1.28 156.74 1.28L156.74 1.28L156.74 1.28Q154.43 1.28 150.91 0.77L150.91 0.77L150.91 0.77Q144-0.32 141.89-0.32L141.89-0.32L141.89-0.32Q139.78-0.32 138.94-0.22L138.94-0.22L138.94-0.22Q138.11-0.13 136.77 0L136.77 0L144.64-42.24L172.22-42.24L172.22-42.24Q172.22-38.34 170.34-36.29L170.34-36.29L170.34-36.29Q168.45-34.24 164.74-34.24L164.74-34.24L164.74-34.24Q161.02-34.24 157.25-35.97L157.25-35.97L155.26-24.77L166.66-24.77L166.66-24.77Q166.66-21.38 164.99-19.49L164.99-19.49L164.99-19.49Q163.33-17.60 160.54-17.60L160.54-17.60L160.54-17.60Q157.76-17.60 156.03-18.24L156.03-18.24L156.03-18.24Q154.30-18.88 154.11-19.07L154.11-19.07L151.81-6.98L151.81-6.98Q153.34-6.78 156.22-6.78L156.22-6.78L156.22-6.78Q161.15-6.78 164.67-9.86ZM205.18-13.25L205.18-13.25L205.18-13.25Q206.85-12.03 206.85-9.44L206.85-9.44L206.85-9.44Q206.85-6.85 205.73-5.02L205.73-5.02L205.73-5.02Q204.61-3.20 202.43-1.79L202.43-1.79L202.43-1.79Q197.76 1.22 189.60 1.22L189.60 1.22L189.60 1.22Q181.44 1.22 176.99-3.04L176.99-3.04L176.99-3.04Q172.54-7.30 172.54-14.85L172.54-14.85L172.54-14.85Q172.54-25.54 178.11-33.66L178.11-33.66L178.11-33.66Q182.34-39.68 189.89-42.24L189.89-42.24L189.89-42.24Q193.79-43.52 197.63-43.52L197.63-43.52L197.63-43.52Q201.47-43.52 203.84-43.01L203.84-43.01L203.84-43.01Q206.21-42.50 208-41.47L208-41.47L208-41.47Q211.90-39.23 211.90-35.65L211.90-35.65L211.90-35.65Q211.90-32.38 208.83-29.95L208.83-29.95L208.83-29.95Q206.02-27.78 203.71-27.78L203.71-27.78L203.71-27.78Q201.41-27.78 200.45-28.10L200.45-28.10L200.45-28.10Q200.70-30.40 200.70-31.90L200.70-31.90L200.70-31.90Q200.70-33.41 200.64-34.50L200.64-34.50L200.64-34.50Q200.58-35.58 200.26-36.61L200.26-36.61L200.26-36.61Q199.62-38.98 197.66-38.98L197.66-38.98L197.66-38.98Q195.71-38.98 193.76-37.15L193.76-37.15L193.76-37.15Q191.81-35.33 190.14-32.26L190.14-32.26L190.14-32.26Q186.37-25.28 186.37-17.02L186.37-17.02L186.37-17.02Q186.37-13.06 188.61-10.78L188.61-10.78L188.61-10.78Q190.85-8.51 195.65-8.51L195.65-8.51L195.65-8.51Q199.23-8.51 202.62-10.88L202.62-10.88L202.62-10.88Q204.10-11.90 205.18-13.25ZM236.03-4.80L236.03-4.80L236.03-4.80Q236.03-9.28 237.82-18.24L237.82-18.24L228.35-18.24L224.83 0L211.46 0L219.58-42.24L233.09-42.24L229.38-23.36L238.85-23.36L242.37-42.24L255.87-42.24L255.87-42.24Q254.98-37.50 253.82-32.19L253.82-32.19L251.65-21.76L251.65-21.76Q249.22-9.60 249.22-4.29L249.22-4.29L249.22-4.29Q249.22-2.11 249.92-0.90L249.92-0.90L249.92-0.90Q246.72 1.28 242.98 1.28L242.98 1.28L242.98 1.28Q239.23 1.28 237.63-0.51L237.63-0.51L237.63-0.51Q236.03-2.30 236.03-4.80ZM255.49-3.78L255.49-3.78L255.49-3.78Q255.49-6.21 257.38-7.55L257.38-7.55L257.38-7.55Q259.26-8.90 261.95-8.90L261.95-8.90L261.95-8.90Q264.64-8.90 266.27-7.55L266.27-7.55L266.27-7.55Q267.90-6.21 267.90-3.78L267.90-3.78L267.90-3.78Q267.90-1.34 266.08-0.03L266.08-0.03L266.08-0.03Q264.26 1.28 261.57 1.28L261.57 1.28L261.57 1.28Q258.88 1.28 257.18-0.03L257.18-0.03L257.18-0.03Q255.49-1.34 255.49-3.78ZM301.95 1.28L301.95 1.28L301.95 1.28Q293.76 1.28 292.99-10.37L292.99-10.37L281.98-10.37L281.98-10.37Q280.70-7.42 279.81-4.86L279.81-4.86L278.14 0L269.18 0L289.34-42.24L303.10-42.24L305.79-11.14L305.79-11.14Q306.43-4.42 308.99-2.43L308.99-2.43L308.99-2.43Q307.14 1.28 301.95 1.28ZM287.49-23.17L283.97-15.04L292.80-15.04L292.03-31.49L292.03-33.22L287.49-23.17ZM325.95 0L312 0L320.13-42.24L334.21-42.24L325.95 0Z" fill="url(#editing-glowing-gradient)"></path></g></g><style>text {
  font-size: 64px;
  font-family: Arial Black;
  dominant-baseline: central;
  text-anchor: middle;
}</style></svg>